<svg width="1200" height="900" viewBox="0 0 1200 900" fill="none" xmlns="http://www.w3.org/2000/svg"><rect width="1200" height="900" fill="#090909"/><rect x="78" y="76" width="1044" height="748" rx="36" fill="url(#paint0_linear)" stroke="url(#paint1_linear)" stroke-opacity="0.35"/><circle cx="278" cy="244" r="126" fill="url(#paint2_radial)" fill-opacity="0.75"/><circle cx="888" cy="622" r="188" fill="url(#paint3_radial)" fill-opacity="0.42"/><path d="M168 608C298 560 406 529 512 537C627 546 724 618 846 609C943 602 1021 545 1096 503" stroke="url(#paint4_linear)" stroke-width="2"/><path d="M170 666C319 619 453 601 570 613C687 626 777 690 892 680C973 673 1042 637 1098 604" stroke="url(#paint5_linear)" stroke-width="2"/><text x="160" y="178" fill="#D6AF60" font-family="Manrope, sans-serif" font-size="22" letter-spacing="7">LAB IMAGE SLOT</text><text x="160" y="720" fill="#F7F0D8" font-family="Cormorant Garamond, serif" font-size="70">Research, testing,</text><text x="160" y="788" fill="#F7F0D8" font-family="Cormorant Garamond, serif" font-size="70">and iteration.</text><defs><linearGradient id="paint0_linear" x1="600" y1="76" x2="600" y2="824" gradientUnits="userSpaceOnUse"><stop stop-color="#141414"/><stop offset="1" stop-color="#0A0A0A"/></linearGradient><linearGradient id="paint1_linear" x1="78" y1="76" x2="1122" y2="824" gradientUnits="userSpaceOnUse"><stop stop-color="#F4D79A"/><stop offset="1" stop-color="#8F6A2F"/></linearGradient><radialGradient id="paint2_radial" cx="0" cy="0" r="1" gradientUnits="userSpaceOnUse" gradientTransform="translate(278 244) rotate(90) scale(126)"><stop stop-color="#F4D79A"/><stop offset="1" stop-color="#090909" stop-opacity="0"/></radialGradient><radialGradient id="paint3_radial" cx="0" cy="0" r="1" gradientUnits="userSpaceOnUse" gradientTransform="translate(888 622) rotate(90) scale(188)"><stop stop-color="#D6AF60"/><stop offset="1" stop-color="#090909" stop-opacity="0"/></radialGradient><linearGradient id="paint4_linear" x1="168" y1="559" x2="1096" y2="559" gradientUnits="userSpaceOnUse"><stop stop-color="#6A4F20" stop-opacity="0"/><stop offset="0.5" stop-color="#F4D79A"/><stop offset="1" stop-color="#6A4F20" stop-opacity="0"/></linearGradient><linearGradient id="paint5_linear" x1="170" y1="631" x2="1098" y2="631" gradientUnits="userSpaceOnUse"><stop stop-color="#6A4F20" stop-opacity="0"/><stop offset="0.5" stop-color="#D6AF60"/><stop offset="1" stop-color="#6A4F20" stop-opacity="0"/></linearGradient></defs></svg>
